# xmcd
#
# Track frame offsets: 
#        150
#        17830
#        36673
#        52082
#        72206
#        86778
#        107212
#
# Disc length: 1675 seconds
#
# Revision: 0
# Processed by: cddbd v1.5.2PL0 Copyright (c) Steve Scherf et al.
# Submitted via: ExactAudioCopyFreeDBPlugin 1.0
#
DISCID=64068907
DTITLE=Mickwee, Brooks Chipman - Birds Of A Feather
DYEAR=2017
DGENRE=Country
TTITLE0=Joyful
TTITLE1=Stay
TTITLE2=Get Back
TTITLE3=Birds
TTITLE4=Believer
TTITLE5=Mercy
TTITLE6=Temptation
EXTD=
EXTT0=
EXTT1=
EXTT2=
EXTT3=
EXTT4=
EXTT5=
EXTT6=
PLAYORDER=
